<svg xmlns="http://www.w3.org/2000/svg" xmlns:xlink="http://www.w3.org/1999/xlink" viewBox="0 0 227 84" style="enable-background:new 0 0 227 84;">
<g fill="#FFF">
<path d="M84.8,58.1c-6.2,0-13.2-1.4-13.2-6.4c0-3.5,0.8-5.5,2.3-5.5c1.7,0,1.3,2.8,4.2,5.8c2.5,2.5,4.9,2.9,7.2,2.9
c4.9,0,7-3,7-5.9c0-4.5-3.5-5.6-8.9-8.2c-8-3.8-10.9-5.6-10.9-11.6c0-5.4,4.1-9.4,11.2-9.4c5.3,0,8.1,0.9,10.9,2.2
c1.1,0.4,1.9,1.3,1.9,2.7c0,3.1-0.8,5.9-2.6,5.9c-1.9,0-1.9-3.8-4.2-5.9c-1.3-1.2-3.4-1.8-5.5-1.8c-4.2,0-6.2,2.2-6.2,4.9
c0,3.3,1.9,4.8,7.7,7.7c5.4,2.7,12.6,4.4,12.6,12C98.2,54.2,91.8,58.1,84.8,58.1"/>
<path d="M121.8,23.9c-6,0-9.1,5-9.1,10.7v10.3c0,7,4.3,9.9,8.8,9.9c6.7,0,10.2-6,10.2-16.9
C131.7,29.1,128.6,23.9,121.8,23.9 M122.5,58.1c-4.2,0-7.4-0.9-9.8-3.9v16.3c0,3.6,1,3.6,2.1,3.6c0.8,0,1,0.5,1,1
c0,1.5-1.3,1.9-2.7,1.9h-6.8c-1.2,0-2.7-0.4-2.7-1.9c0-0.4,0.1-1,0.9-1c1.1,0,2.2-0.2,2.2-3.7V27.7c0-3-0.4-3.8-2.1-3.8
c-0.7,0-1-0.5-1-1c0-1.3,1.4-1.8,2.7-1.8h4.5c1.9,0,1.9,1.9,1.9,4.8c3-5.1,8-6,11.5-6c8,0,14.2,4.9,14.2,18.7
C138.4,49.4,133.1,58.1,122.5,58.1"/>
<path d="M149.5,15.3c-2.1,0-4-1.9-4-4c0-2.2,1.9-4,4-4c2.2,0,4.2,1.9,4.2,4C153.6,13.4,151.7,15.3,149.5,15.3
 M153.5,57.2h-6.7c-1.1,0-2.7-0.4-2.7-1.9c0-0.4,0.1-1,1-1c1,0,2.1,0,2.1-3.6V27.5c0-3-0.5-3.6-2.1-3.6c-0.7,0-1-0.5-1-1
c0-1.4,1.6-1.8,2.7-1.8h4.8c1.5,0,1.8,1.3,1.8,2.7c0,1.3-0.1,3.1-0.1,3.8v23.3c0,3.6,1,3.6,1.9,3.6c0.9,0,1.1,0.6,1.1,1
C156.3,56.8,155,57.2,153.5,57.2"/>
<path d="M184,28.4c-1.8,0-2.3-3.3-5.5-3.3c-4.8,0-7.3,6.2-7.3,11.7v14c0,3.6,1,3.6,2.1,3.6c0.8,0,1,0.6,1,1
c0,1.5-1.3,1.9-2.7,1.9h-6.8c-1.2,0-2.7-0.4-2.7-1.9c0-0.4,0.1-1,0.9-1c1.1,0,2.2,0,2.2-3.6V27.5c0-2.9-0.5-3.6-1.9-3.6
c-0.7,0-1.1-0.3-1.1-1c0-1.5,1.6-1.9,2.8-1.9h4.8c1.5,0,1.7,1.2,1.7,2.8c0,1-0.1,2.8-0.1,3.9c2.5-4.8,6.9-7.4,10.6-7.4
c3.7,0,4.9,1.4,4.9,3.4C186.8,26.9,185.3,28.4,184,28.4"/>
<path d="M205.7,23.1c-7.4,0-8.8,7.8-8.8,11.1c0,1.4,0.2,1.4,1.4,1.4h13c2.2,0,2.5-0.5,2.5-2.8
C213.8,28.5,211.9,23.1,205.7,23.1 M217.9,38.9h-21c0,7.1,2.4,15.2,10.7,15.2c4.8,0,7.2-2.1,9.4-5.1c0.3-0.5,0.9-1.3,1.7-1.3
c0.7,0,1.5,0.4,1.5,1.3c0,0.7-0.1,1-0.4,1.6c-2.3,4.6-7.4,7.5-13.6,7.5c-9.4,0-16.1-6.5-16.1-18.6c0-12.8,6.3-19.7,15.8-19.7
c9.6,0,14.6,6.5,14.6,14.9C220.6,38.3,219.1,38.9,217.9,38.9"/>
<path d="M44.9,49.6c-0.6-0.4-1-1-1-1.7v-9c0-0.7-0.4-1.4-1-1.7l-7.4-4.4c-0.6-0.4-1-1-1-1.7V17.2v0
c0-0.6,0.4-1.2,1-1.4c0.1-0.1,0.3-0.1,0.4-0.2c0.8-0.4,1.8-0.2,2.2,0.6c0,0,0,0,0,0l20.1,36.9c0.5,0.9,0.2,2.1-0.7,2.7L57.4,56
c-0.6,0.4-1.3,0.4-1.9,0L44.9,49.6z"/>
<path d="M11.2,56c-0.6,0.4-1.3,0.4-1.9,0L9,55.8c-0.9-0.5-1.2-1.7-0.7-2.7l20.1-36.9c0,0,0,0,0,0
c0.4-0.8,1.4-1,2.2-0.6c0.1,0.1,0.2,0.1,0.4,0.2c0.6,0.2,1,0.8,1,1.4v0v13.9c0,0.7-0.4,1.4-1,1.7l-7.4,4.4c-0.6,0.4-1,1-1,1.7v9
c0,0.7-0.4,1.4-1,1.7L11.2,56z"/>
<path d="M55.3,60.6c0,1.1-0.9,2-1.9,2H13.5c-1.1,0-1.9-0.9-1.9-2v-0.7c0-0.7,0.4-1.4,1-1.7l10.8-6.5
c0.6-0.4,1.3-0.4,1.9,0l7.4,4.4c0.3,0.2,1.4,0.2,1.7,0l7.4-4.4c0.6-0.4,1.3-0.4,1.9,0l10.8,6.5c0.6,0.4,1,1,1,1.7V60.6z"/>
</g>
</svg>